<svg height="64" viewBox="0 0 64 64" width="64" xmlns="http://www.w3.org/2000/svg"><path d="m59.64 40.39c.06-2.79-.62-23.63-.74-25.52s-3.54-2.45-5.33-2.48-6.08.18-6.86.18-9.22-.06-15.12 0-19.13.21-21.53.21-4.87.3-5.18.72c-1.23 1.64-.15 12.72-.15 20.27s.36 11.74.69 12.78a19.56 19.56 0 0 0 2.13 4.37c.48.45 1.37.39 4.88.45s3.8.24 12.09.24 16.86-.27 24.17-.48 8-.33 9.76-1.55 1.13-6.41 1.19-9.19zm-1.28-10.16c-.21-.23-1.86-2.72-2.19-2.69s-.27.66-.21 1 2.28 2.69 2.28 2.87a11.85 11.85 0 0 1 .06 1.71c-.09-.06-1.74-3.11-2.13-2.93s-.39.86-.36 1.1 2.46 2.85 2.46 3.15.12 1.82 0 1.52-2-3.32-2.34-3.14a.91.91 0 0 0 -.24 1.08c.15.33 2.52 3 2.55 3.29s.21 2.37 0 2.22-1.74-3.31-2.43-3.41-.78.39-.48.66a26.76 26.76 0 0 1 1.83 2.94c.33.6 1.2 1.37 1.23 1.55a10.39 10.39 0 0 1 -.12 2.64c-.18-.12-1.47-3.21-2.28-4.16s-1.23-1.44-1.47-1.17-.12.72.12 1.08 2.49 3.95 2.67 4.25.33.57.27.78-.36.48-.36.69-.09.27-.12.06-2.82-4.44-3.29-5.12-.54-.87-1-.66 0 .84.18 1 3.74 5.39 3.77 5.78-.45.84-.69.72-3.65-5.75-4.16-6.5-.72-.74-1-.41.36.92.81 1.7 2.78 4.49 3.11 4.85a1.62 1.62 0 0 1 .39.78s-1 .33-1.19.15-4.11-6.68-4.44-6.68-.62.45-.53.6 4.16 6.11 3.77 6.14-1.38.21-1.62 0-2.87-5.12-3.32-5.15-.69.72-.66.84 3 4.13 2.75 4.28a1.18 1.18 0 0 1 -1.19.09c-.36-.27-2.73-5-3-5.12s-1 .36-.84.54 3.09 4.76 2.67 4.76-1 .09-1.2-.15-2.66-4.34-2.93-4.43-.84.09-.69.45 3.23 4.13 2.78 4.13-1.7.27-1.88 0-2.31-4.07-2.7-4.16-.69.39-.63.6 2.34 3.56 2.07 3.59a4.66 4.66 0 0 1 -1.59-.06c-.21-.15-1.83-3.56-2.12-3.59s-.75.39-.69.57 1.91 3 1.55 3.11-1 .15-1.25-.06-2-3.17-2.34-3.23-1 .21-.84.48 1.94 2.84 1.64 2.84a4.52 4.52 0 0 1 -1.56 0c-.15-.15-2-2.6-2.21-2.69s-.87.15-.69.32 1.88 2.22 1.52 2.28-8.32.36-13.5.42a74.6 74.6 0 0 1 -10.15-.24 5.69 5.69 0 0 1 -3.21-1.36c-.45-.39-.78-4.43-.84-8.74s-.36-14.28-.42-16.8-.27-5.57.09-6.23c.2-.37 2.31-.44 9-.74s13.38-.22 22.17-.36 13.29-.24 15.6-.09 4.64.45 5.06 1.25.6 7.28.42 7.13-1.08-1.23-1.29-1-.42.6-.24.81 1.59 1.35 1.62 1.65.09.9 0 .72-1-1.38-1.32-1.11-.48.72-.21 1a10.42 10.42 0 0 1 1.65 2c.06.33 0 1.08-.09.87s-1.53-2.3-1.89-2-.21 1-.15 1.16 2.16 2 2.16 2.13.25 2.09.04 1.85zm-42.58-9.91c.69.66 6.11 5.06 9.91 7.94s4.85 3.17 7.61 3.11 4.34-1.22 6.85-2.69 9.52-8.36 10.42-9.58.33-1.38-.3-1.65-3.08-.27-11.79-.09-18.81.27-20.75.3-3.32.27-3.45.48c-.42.66.81 1.53 1.5 2.18zm17.13.27c6.52 0 14-.3 14.25 0s-4.76 5.09-7.85 7-4.49 2.78-7.24 2.4-7.94-4.83-9.91-6.29-3.16-2.57-3.09-2.78 7.31-.36 13.84-.33zm20.84-.83c-.81-.15-3.57 3.35-5.3 5.53s-3.58 4.5-3.63 4.65c-.18.59.42.71 2.16 2.24a48.13 48.13 0 0 1 4.76 5.72c.87 1.08 1.41 1.32 2 .87s.47-.93.56-3 .21-9.31.36-12.24-.11-3.62-.91-3.77zm-.6 17.45c-.3-.18-2.85-3.77-3.45-4.31s-1.61-1.35-1.7-1.74c-.06-.23 5.24-6.55 5.42-6.34s.03 12.57-.27 12.39zm-7.82-1.71c-1.29-1.58-2.15-3.11-3.11-3.08s-2.73 1.14-4.22 2.16a7.7 7.7 0 0 1 -4.2 1.61c-1.34 0-4.46-1.61-4.88-1.94a8.72 8.72 0 0 0 -3.11-1c-1 .15-6.29 7.1-6.77 7.69s.66 1.68 1.38 1.77 2.7 0 12.16-.39 14-.72 14.85-.9.87-.93.69-1.49a22.14 22.14 0 0 0 -2.79-4.43zm1.35 4.77c-.18.17-6.71.71-14.88 1s-9.52.21-9.43.06 4.28-4.94 4.7-5c.26 0 4.64 2.1 6.59 2.16a10.28 10.28 0 0 0 6.07-2.16c1.89-1.37 2.91-2.09 3.21-2.06a26.9 26.9 0 0 1 3.26 4.37c.54 1 .66 1.45.48 1.63zm-27.91-13.27c-1.94-1.88-6.75-6-7.27-6-2.28 0-1.59 3.54-1.44 8.09a91.18 91.18 0 0 0 1.2 11.91 1.72 1.72 0 0 0 2.42 1.35c.93-.24 1.65-1.47 3.48-3.77s4.49-6 4.73-7.64-1.17-2.08-3.12-3.94zm-3.77 12.46c-.81 1-.72 1-.93 1s0-9.07-.09-10.74a23.89 23.89 0 0 1 -.12-3.9c.1-.22 2.82 2.13 4.29 3.36s2.24 1.91 2.3 2.21a93.83 93.83 0 0 1 -5.45 8.07zm19.52-7a9.07 9.07 0 0 1 -3.41-.33c-.63-.12-.75.66-.36 1s1.23.6 3.44.57a5.65 5.65 0 0 0 4-1.29.74.74 0 0 0 -.54-1c-.43-.1-1.65.77-3.1 1.01zm-24.79 13.13c-.33-.29 0-2.3-.18-2.63s-1-.31-1.17 0a6.58 6.58 0 0 0 .09 2.87 1.52 1.52 0 0 0 1.71 1.23.86.86 0 0 0 .72-1.14c-.09-.21-.84-.03-1.17-.33zm-1.26-27.81c.18-.72 1.35-.69 1.68-.87s.39-.12.33-.51-.45-.81-1.65-.6a2.17 2.17 0 0 0 -1.76 2.2c0 .93 0 2.92.24 3.08s.9.24 1.07 0-.09-2.58.09-3.3zm47.76-.93c.21-.27.36-.48-.39-1.59a3.11 3.11 0 0 0 -2.69-1.26c-.93.51-.42 1.55.45 1.58s1.28 1.11 1.58 1.47.82.07 1.05-.2z" fill="#1d1d1b"/></svg>