<svg xmlns="http://www.w3.org/2000/svg" width="24" height="24"><path d="M12 20.6c-.2 0-5.8-.1-7.5-.2h-.3c-.6-.1-1.6-.2-2.4-1.1-.7-.8-1-2.4-1-2.5 0-.1-.2-1.9-.2-3.8v-1.7c0-1.9.2-3.7.2-3.8 0-.2.3-1.8 1-2.6.9-1 1.9-1.1 2.4-1.1h.1c3.1-.2 7.7-.2 7.8-.2.1 0 4.7 0 7.7.2h.1c.5 0 1.5.1 2.4 1.1.7.8 1 2.4 1 2.5 0 .1.2 1.9.2 3.8v1.7c0 1.9-.2 3.7-.2 3.8 0 .2-.3 1.8-1 2.6-.9 1-1.9 1.1-2.4 1.1h-.1c-3.1.2-7.8.2-7.8.2zm0-16.2c-.1 0-4.6 0-7.7.2h-.1c-.4 0-1.1.1-1.8.8-.4.6-.6 1.7-.7 2.1 0 0-.2 1.8-.2 3.6v1.7c0 1.8.2 3.6.2 3.7.1.4.3 1.5.7 2 .6.6 1.3.7 1.8.8h.3c1.7.2 7.2.2 7.4.2.1 0 4.7 0 7.7-.2h.1c.4 0 1.1-.1 1.7-.8.5-.5.7-1.6.7-2 0 0 .2-1.8.2-3.6v-1.7c0-1.8-.2-3.6-.2-3.7-.1-.4-.3-1.5-.7-2-.6-.7-1.3-.8-1.8-.8h-.1c-2.9-.3-7.4-.3-7.5-.3zM9.7 15.5c-.1 0-.2 0-.3-.1-.2-.1-.2-.3-.2-.4V8.6c0-.2.1-.3.2-.4.2-.2.4-.2.6-.1l5.9 3.2c.2.1.3.3.3.4 0 .2-.1.4-.3.4L10 15.4c-.1.1-.2.1-.3.1zm.5-6.1v4.8l4.4-2.4-4.4-2.4z"/></svg>