<svg class="yt-button" height="64" viewBox="0 0 64 64" width="35" xmlns="http://www.w3.org/2000/svg"><path d="m59.25 19.43c-.11-6.54-8.25-6.79-11.25-7.27a111.62 111.62 0 0 0 -16.41-.8c-6.1.16-16.33 1.08-20.16 2s-5.11 3.23-5.63 5.15-1 8.14-.87 12.73a57.77 57.77 0 0 0 1.27 11.46c.72 3.3 2.8 6.91 4.68 8.06s7.5 1.6 13.37 1.84 15.41-.2 21.24-.36 8.18-1 10.14-2.35 3.59-6.89 3.71-12.89-.01-12.42-.09-17.57zm-1.59 13.65a40.09 40.09 0 0 0 -2.66-4.67c-.64-.68-.84-.2-.88 0a18.84 18.84 0 0 0 1.28 2.15c.16.36 2.19 4.16 2.19 4.55a16 16 0 0 1 -.28 3.12c-.16-.08-3-6.87-3.27-6.79s-.84.56-.64 1 3.6 6.83 3.6 7.15-.52 2.43-.68 2.11-3.21-7.62-3.49-7.7-.6.8-.6 1 3.64 7.67 3.64 7.67a17 17 0 0 1 -1 2.16c-.12 0-3.51-8.43-3.79-8.39s-.44.8-.44.8 3.51 8.5 3.43 8.62-1.07 1.43-1.07 1.27-2.71-8.26-3.19-8.26-.8.24-.72.6 3.39 7.7 3.19 7.9-1.23.64-1.39.48-3.08-7.27-3.28-7.35-.6.16-.6.32 2.99 7.63 2.99 7.63a9.14 9.14 0 0 1 -2.12.52c-.08-.16-2.79-7.27-3-7.31s-.8.36-.76.6 2.95 6.75 2.75 6.83a9.12 9.12 0 0 1 -2.07.08c-.12-.08-2.12-6.15-2.32-6.19a1.52 1.52 0 0 0 -.87.48c0 .12 2.19 5.95 2 5.91s-1.4.08-1.48-.08-1.83-6-2-6-.88.24-.88.36 2.12 6 2 6a8.11 8.11 0 0 1 -1.72-.12c-.12-.12-1.84-5.35-2-5.39s-1 .16-1 .4 1.92 5 1.72 5a7.2 7.2 0 0 1 -1.87-.16c-.16-.16-1.76-5.23-2-5.23s-1 .08-.88.52 2.16 4.91 1.92 4.91a7.08 7.08 0 0 1 -1.84 0c-.2-.16-1.92-5.43-2.27-5.43s-.88.4-.88.64 2.27 4.91 2.11 4.91a5.92 5.92 0 0 1 -1.47-.12c-.12-.12-2-4.83-2.2-4.83s-1.08 0-1 .28a47.59 47.59 0 0 1 2.13 4.5c-.2 0-1.28 0-1.4 0s-1.68-4.53-2-4.53-1.11.31-1 .51 2 4 1.87 4l-1.59-.08a30 30 0 0 0 -1.76-3.88c-.24 0-1 .28-.88.52s1.84 3.32 1.64 3.36-1.32.08-1.44-.08-1.32-3-1.48-3-1.11.12-.95.4a21.85 21.85 0 0 1 1.27 2.68 4.61 4.61 0 0 1 -1.43-.16c-.2-.16-1-2.56-1.24-2.56s-1 .2-.8.48a8.64 8.64 0 0 1 .84 2.08c-.16 0-1.08 0-1.2-.16s-.92-2.32-1.2-2.32-1.11.24-1 .48.88 1.76.72 1.76-.97-.03-.97-.03-.8-2-1.16-2-1.12.2-1 .36.68 1.56.48 1.48-3-.68-4.31-1.88-3.37-4.96-3.57-8.89.32-12.7.28-15.33a10.67 10.67 0 0 1 1-5.39c.56-1.16 1.87-2.28 5.71-3a84.13 84.13 0 0 1 14.09-1.72c5.48-.11 12.54.37 14.85.37s9.52-.13 12.52 2.51c2.63 2.3 2.53 5.73 2.81 8.35a7.65 7.65 0 0 1 -.36 3.51s-1.87-3.67-2-3.15-.28 1.31-.12 1.55a42.32 42.32 0 0 1 2.31 4.15 24 24 0 0 1 .13 3.16zm-16.2-3.51c0-.84-1.16-1.16-4.24-2.2s-7.54-2.48-9.1-2.56a2.7 2.7 0 0 0 -2.63 2.72c0 1.32 0 9.18.12 9.7a1.11 1.11 0 0 0 1 1c1.88 0 6.47-2.52 10.34-4.75s4.55-3.08 4.51-3.91zm-13 7c-.28 0-.28-8 .08-8.1a49.49 49.49 0 0 1 7.79 1.39c1.51.56 2.39.8 2.31 1.12s-2.95 1.88-5.51 3.28-4.25 2.33-4.69 2.29zm-12.76-20.34a16.21 16.21 0 0 0 -5 2.32 5.63 5.63 0 0 0 -2.78 5.15c.08 1.79.32 2.3.68 2.3s.72-1.55.6-2.15a6.52 6.52 0 0 1 1.35-3.48c.8-1 4.83-2.67 5.31-3.07s.56-1.15-.16-1.07zm-5.34 26.19c-.56-.48-.64-2-.72-2.28s-1.14-.31-1.16-.14a5.15 5.15 0 0 0 1.84 4.32.81.81 0 0 0 1.15-.56c0-.38-.55-.86-1.11-1.34zm13.93-12.18c-.16-.2-1-.54-1.2-.08s0 5.51 0 6.15.24 1.4.6 1.52.72-.48.6-1.2.16-6.19 0-6.39zm20 1.64c-.68.4-8.11 4.67-8.26 5a.5.5 0 0 0 .4.68c.35.08.83.28 2-.44s7.15-4.07 7.51-4.43a.62.62 0 0 0 -.08-1c-.37-.21-.86-.21-1.57.19zm2-17c-.2 0-.39 1.08 0 1.16a9.32 9.32 0 0 1 3.71 1.35 8 8 0 0 1 2.47 3.35c.28.48.68.2 1-.32s-.08-1.11-2-3.51a5.84 5.84 0 0 0 -5.22-2z" fill="#1d1d1b"/></svg>